<?xml version="1.0" encoding="utf-8"?>
<!-- Generator: Adobe Illustrator 16.0.0, SVG Export Plug-In . SVG Version: 6.00 Build 0)  -->
<!DOCTYPE svg PUBLIC "-//W3C//DTD SVG 1.1//EN" "http://www.w3.org/Graphics/SVG/1.1/DTD/svg11.dtd">
<svg version="1.1" id="Layer_1" xmlns="http://www.w3.org/2000/svg" xmlns:xlink="http://www.w3.org/1999/xlink" x="0px" y="0px"
	 width="258.051px" height="323.658px" viewBox="0 0 258.051 323.658" enable-background="new 0 0 258.051 323.658"
	 xml:space="preserve">
<g>
	<path fill-rule="evenodd" clip-rule="evenodd" d="M74.277,168.667c4.912-2.313,10.129-3.434,14.066-7.538
		c2.879,0.753,5.792,0.257,8.765-0.586c1.194-0.339,2.726,0.516,4.79,0.981c3.38-1.299,5.993,0.792,8.181,4.361
		c1.08-0.824,2.025-1.544,3.328-2.538c1.348,0.14,3.027,0.313,4.502,0.466c3.389-1.73,6.749-3.446,10.192-5.204
		c1.141,0.936,2.079,1.705,3.117,2.556c3.556-0.062,6.859-0.702,10.153-2.609c3.557-2.059,7.48-3.882,11.708-4.054
		c2.915-0.119,5.034-0.957,6.279-3.925c3.372,1.129,6.51,0.171,9.726-0.54c1.479-0.327,3.144,0.194,5.21,0.372
		c1.353-0.887,3.104-2.035,5.168-3.389c21.312,0,43.03,0,64.614,0c1.647,2.998,3.219,5.859,4.806,8.746
		c0.735-0.213,1.298-0.375,1.661-0.48c0.918,0.762,1.62,1.695,2.544,2.045c2.841,1.078,2.874,0.991,2.872,4.105
		c0.649,0.756,1.372,1.599,2.026,2.363c0.265,1.637-0.322,2.83-0.916,4.257c-2.194,5.272-5.518,10.168-6.212,15.968
		c-0.341,2.843-1.879,5.054-3.274,7.216c-1.302,2.017-1.557,3.705-0.604,5.745c-1.178,2.104-2.31,4.126-3.663,6.546
		c-4.042,0.843-4.056,5.185-5.746,8.298c-0.913,1.683-1.624,3.475-2.695,5.803c-0.093,0.713-0.279,2.14-0.452,3.462
		c0.487,2.034,0.964,4.023,1.47,6.134c0.935-0.195,1.632-0.342,2.096-0.438c1.33,0.51,2.55,0.978,3.771,1.445
		c-0.264,0.215-0.528,0.431-0.792,0.646c1.131,0.909,2.262,1.817,3.392,2.726c0.567,1.345,0.129,2.917-1.953,3.371
		c1.457,4.003,0.804,7.517-1.672,11.171c0,25.456,0,51.285,0,77.494c-1.438,0-2.656,0-3.876,0c-73.842,0-147.685,0-221.527-0.001
		c-0.75,0-1.503,0.046-2.249-0.015c-2.891-0.234-4.698-1.611-5.489-4.455c-1.117-4.017-2.31-8.05-2.157-12.275
		c0.062-1.702,0.533-3.39,0.811-5.084c0.174-1.062,0.766-2.299,0.42-3.155c-1.023-2.535-2.418-4.92-3.857-7.259
		c-0.966-2.439-0.376-4.674,0.934-6.956c1.09-1.899,1.665-4.023,1.761-6.355c0.084-2.023,1.117-3.994,1.577-6.022
		c0.279-1.233,0.267-2.532-0.202-3.928c1.038-1.518,2.064-3.041,3.114-4.549c2.414-3.468,2.699-7.626,3.588-11.548
		c1.006-4.429,1.545-8.965,2.261-13.458c0.097-0.611,0.029-1.248,0.059-1.871c0.249-5.104,0.466-10.212,0.773-15.314
		c0.131-2.189,0.494-4.364,0.668-6.553c0.096-1.211,0.017-2.436-0.477-3.696c0.43-0.727,0.859-1.453,1.343-2.272
		c-0.257-0.678-0.752-1.362-0.726-2.026c0.096-2.446-0.753-4.953,0.567-7.346c0.459-0.832,0.727-1.909,0.684-2.856
		c-0.281-6.176,2.75-12.041,1.623-18.317c-0.247-1.373,0.354-2.898,0.336-4.372c0.097-1.396,0.244-2.792,0.281-4.19
		c0.08-2.988,0.201-5.983,0.086-8.967c-0.034-0.882-0.804-1.734-1.008-2.144c0-2.986,0-5.514,0-8.821
		c-0.001,0.002,0.506-0.647,0.899-1.149c0.802-4.212-0.218-7.902-2.844-11.421c2.936,0.045,3.133,3.387,5.729,3.679
		c-0.124-0.703-0.215-1.22-0.378-2.144c4.417-0.496,8.808-1.222,12.814-3.717c1.072,2.33,1.864,4.05,2.727,5.923
		c1.501-0.179,2.971,0.071,3.863-0.532c3.854-2.608,6.621-0.208,9.291,1.912c2.998,2.38,4.846,5.422,5.096,9.523
		c0.231,3.772,1.208,7.499,1.916,11.594c3.282,1.879,7.192,3.011,11.27,3.679c0.703,0.115,1.383,0.409,2.055,0.669
		C73.067,168.072,73.618,168.363,74.277,168.667z"/>
	<path fill-rule="evenodd" clip-rule="evenodd" d="M71.458,41.099c-0.442,0.204-0.885,0.406-1.794,0.825
		c-0.229-2.223-0.438-4.246-0.676-6.543c1.698-0.138,3.016-0.245,4.49-0.364c0.668-2.321-1.163-3.354-2.437-4.062
		c-1.869-1.038-2.765-2.345-2.812-4.424c-0.591,0.521-1.11,0.979-1.659,1.464c0.161,0.769,0.331,1.575,0.514,2.444
		c0.919,0.715,1.868,1.453,2.984,2.321c-0.421,0.619-0.747,1.097-1.14,1.673c-0.773-0.243-1.439-0.453-2.17-0.682
		c-0.666,0.794-1.347,1.605-2.007,2.391c0.155,0.287,0.217,0.609,0.387,0.682c2.286,0.993,2.837,3.006,2.634,5.128
		c-0.144,1.504,0.692,2.108,1.788,2.854c-0.053-0.613-0.106-1.226-0.194-2.254c1.985,2.437,5.116,3.341,5.445,7.065
		c-0.26,0.439-0.743,1.256-1.136,1.919c-2.888,0.359-1.596-2.639-3.308-3.323c-0.465,0.263-1.056,0.596-1.704,0.962
		c-0.726-1.55-1.348-3.156-2.203-4.625c-0.887-1.525,2.006-3.458-0.899-4.649c-0.182,0.051-0.649,0.182-1.118,0.312
		c-0.925-1.116-1.849-2.23-2.943-3.551c0.938-3.676,4.681-6.7,3.166-11.185c-0.317,0.119-0.769,0.288-1.419,0.531
		c0.164-2.372,2.037-2.388,3.582-2.978c1.082,0.956,2.099,1.854,3.255,2.874c1-2.273,0.596-3.912-1.016-5.73
		c1.18,0.326,1.848,0.511,2.575,0.711c1.542-2.27-1.225-2.845-1.633-4.335c0-1.33,0-2.689,0-4.135
		c-2.643-1.966-3.349-1.669-3.887,1.771l0.098-0.093c-0.498-0.286-0.997-0.571-1.595-0.914c0.274-0.817,0.498-1.487,0.807-2.409
		c-0.642-0.313-1.295-0.631-1.85-0.901c-0.701-1.394-1.45-2.885-2.322-4.618c0.023-0.06,0.189-0.497,0.37-0.97
		c-0.501-0.404-0.947-0.765-1.598-1.289C60.887,1.948,61.721,0.926,62.476,0c59.762,0,119.312,0,179.265,0
		c0,10.511,0,20.843,0,31.175c0,10.245,0,20.489,0,30.733c0,10.37,0.068,20.74-0.019,31.109
		c-0.087,10.194,0.396,20.405-0.345,31.088c3.212,1.681,2.984,5.601,4.009,9.122c-0.425,0.898-0.895,1.897-1.386,2.937
		c0.595,1.374,1.219,2.819,1.958,4.53c-22.073,0-43.883,0-65.656,0c-1.521,1.088-2.928,2.094-4.581,3.276
		c-3.348-0.752-6.825-0.434-10.326,0.583c-1.16,0.337-2.611-0.332-4.24-0.589c-1.602,4.22-5.844,3.511-9.258,4.382
		c-3.109,0.794-8.568,3.089-10.867,5.174c-2.669,0.353-5.471,0.722-8.19,1.082c-1.321-0.86-2.451-1.595-3.701-2.409
		c-3.225,1.602-6.496,3.227-9.793,4.865c-1.369-0.158-2.934-0.338-4.48-0.516c-1.046,0.882-1.974,1.666-3.12,2.634
		c-2.221-3.03-4.489-5.83-9.031-4.062c-1.754-1.298-3.747-1.708-6.296-0.84c-2.093,0.711-4.575,0.276-7.106,0.356
		c-3.177,4.359-8.821,4.642-13.299,7.241c-4.99-2.355-10.99-1.956-15.495-5.178c-0.66-4.55-1.005-8.859-1.984-13.02
		c-0.693-2.945-1.836-5.934-4.746-7.685c-0.739-0.444-1.395-1.036-2.063-1.59c-2.161-1.789-4.341-2.502-7.05-0.911
		c-1.934,1.136-2.053,0.933-5.023,0.07c-0.438-1.414-0.899-2.904-1.443-4.659c-1.44,0.085-2.807,0.386-4.09,0.177
		c-1.197-0.195-2.305-0.933-3.919-1.635c-1.577,0.582-3.604,1.331-6.182,2.283c-0.807-0.825-1.865-1.909-3.092-3.163
		c-0.741,0.512-1.514,1.046-2.219,1.534c0.133-5.787,0.262-11.38,0.39-16.974c1.742,2.383,1.137,5.102,1.771,7.969
		c0.198-0.439,0.396-0.878,0.567-1.255c0.458,0.285,0.764,0.475,1.325,0.825c0.663-0.843,1.319-1.677,1.957-2.487
		c-0.805-1.497-1.497-2.782-2.347-4.362c1.27-1.443,2.521-2.866,3.839-4.365c-0.478-0.447-1.018-0.952-1.21-1.132
		c-1.005,0.231-1.704,0.312-2.336,0.562c-0.55,0.218-1.024,0.629-1.6,0.998c-0.869-0.591-1.765-1.2-2.595-1.764
		c-0.419-2.563-0.832-5.088-1.335-8.166c0.882,0.826,1.496,1.401,2.104,1.97c2.003-1.104,4.167-2.295,7.125-3.925
		c-2.056-0.474-3.318-0.765-4.842-1.117c-0.257-0.604-0.626-1.474-1.038-2.442c-1.259,0-2.428,0-3.877,0
		c0.274,1.463,0.493,2.631,0.734,3.917c-0.378,0.281-0.76,0.565-1.419,1.056c-0.063-7.53,0.787-15.018-4.41-20.773
		c-0.25-7.676-1.154-14.82-5.297-21.815c-3.43-2.288-5.458-6.009-5.36-10.953C0.885,42.213,0.369,40.557,0,38.258
		c0.6-1.75,1.453-4.237,2.394-6.979c-0.587-0.721-1.273-1.562-1.994-2.446c0.193-0.167,0.337-0.401,0.497-0.413
		c3.392-0.252,5.735,2.059,8.361,3.575c1.958,1.13,3.585,2.571,6.134,2.646c1.387,0.041,3.016,1.22,4.037,2.34
		c1.962,2.154,4.34,2.592,7.015,2.719c4.501,0.214,8.996,0.574,13.493,0.874c1.903,2.34,4.5,0.98,6.676,1.351
		c1.098-0.769,2.085-1.459,3.072-2.149l-0.088-0.091c1.221,1.119,2.442,2.238,3.965,3.633c0.584-0.149,1.612-0.414,2.556-0.655
		c0.818,0.74,0.258,2.584,2.135,2.072c-0.122-0.771-0.246-1.554-0.414-2.62c1.206-0.553,2.373-1.087,3.389-1.552
		c2.038,1.425-2.056,2.928,0.586,4.193c0.546-0.613,1.124-1.263,1.86-2.09c0.39,1.457,0.703,2.627,1.017,3.803
		c-0.554,0.413-1.006,0.75-1.453,1.084c1.001,1.915,1.984,3.796,2.958,5.659c-2.341,1.53-3.893,3.398-4.583,6.403
		c2.228-0.63,2.409-2.68,3.623-3.729c1.252-1.083,2.723-2.208,2.451-4.243l-0.067,0.067c0.864-0.186,1.378,0.124,1.719,0.978
		c0.827,2.071,1.587,4.134,1.16,6.497c-0.639,0.053-1.217,0.1-2.218,0.182c0.348,0.904,0.647,1.682,0.946,2.46
		c0.174-0.053,0.348-0.104,0.522-0.157c0.137,1.807,0.273,3.613,0.409,5.406c-0.539,0.503-1.145,1.07-1.694,1.584
		c0.131,0.398,0.15,0.769,0.284,0.816c2.335,0.836,3.628,2.325,3.491,4.954c-0.028,0.534,0.621,1.104,1.133,1.945
		c-0.833,0.835-1.875,1.881-2.942,2.951c-0.65-0.489-1.146-0.863-1.771-1.333c-0.239,0.245-0.495,0.507-1.133,1.162
		c2.174,0.152,2.543,2.774,4.976,2.358c-0.125-0.47-0.229-0.859-0.42-1.578c0.925-0.567,1.925-1.18,3.215-1.97
		c0.338-3.603-1.86-6.85-2.309-10.623c0.577-0.248,1.206-0.517,2.527-1.084c-1.262-0.937-2.295-1.703-3.592-2.666
		c1.974-1.573,2.056-3.531,1.768-5.69c-0.117-0.873,0.417-1.851,0.727-2.758c0.589-1.73,1.23-3.442,1.9-5.303
		c0.749-0.234,1.546-0.484,2.413-0.756c0-0.911,0-1.757,0-2.633c-1.506-1.36-2.982-2.693-4.04-3.649
		c-0.638-2.58,0.534-5.229-2.779-6.328c-0.061,0.669,0.026,1.197-0.175,1.569c-0.275,0.507-0.77,0.896-1.154,1.318
		c0.306,0.723,0.541,1.278,0.776,1.833L71.458,41.099z"/>
	<path fill-rule="evenodd" clip-rule="evenodd" d="M50.368,17.238c0.986,1.539,1.805,3.262,4.598,4.107
		c-1.101-1.366-1.694-2.103-2.298-2.852c1.474-1.699,2.845-3.279,4.247-4.895c0.675,0.219,1.433,0.331,2.044,0.692
		c1.049,0.62,2.007,1.396,3.224,2.266c-0.647,0.563-1.2,1.045-1.892,1.648c2.334,3.306-0.357,6.229-0.343,9.641
		c-3.651-1.414-7.436-1.61-10.538-4.719c-0.314-1.024-0.775-2.525-1.297-4.224c0.781-0.591,1.582-1.197,2.382-1.802L50.368,17.238z"
		/>
	<path fill-rule="evenodd" clip-rule="evenodd" d="M63.813,18.611c0.294,0.873,0.587,1.746,1.126,3.349
		c-1.301-0.624-1.938-0.928-3.055-1.463c0.895-0.784,1.46-1.281,2.026-1.778L63.813,18.611z"/>
	<path fill-rule="evenodd" clip-rule="evenodd" d="M52.337,14.592c0.433-0.391,0.865-0.782,1.297-1.173
		c0.174,0.163,0.349,0.326,0.523,0.489c-0.366,0.472-0.733,0.943-1.099,1.416C52.818,15.08,52.578,14.835,52.337,14.592z"/>
	<path fill-rule="evenodd" clip-rule="evenodd" d="M50.494,17.101c-1.032-0.45-2.064-0.901-3.096-1.351
		c1.749-0.715,2.426,0.287,2.97,1.489L50.494,17.101z"/>
	<path fill-rule="evenodd" clip-rule="evenodd" d="M65.545,19.926c0.929,0.847,1.531,1.396,2.6,2.37c-1.354,0-1.918,0-2.6,0
		C65.545,21.58,65.545,21.01,65.545,19.926z"/>
	<path fill-rule="evenodd" clip-rule="evenodd" d="M63.829,15.008c0.679,0.478,1.358,0.956,2.037,1.434
		c-1.563,0.407-1.897-0.425-1.929-1.533L63.829,15.008z"/>
	<path fill-rule="evenodd" clip-rule="evenodd" d="M63.937,14.91c-0.521-0.53-1.042-1.059-1.564-1.587
		c0.235-0.123,0.469-0.245,0.705-0.367c0.25,0.685,0.501,1.369,0.751,2.053L63.937,14.91z"/>
	<path fill-rule="evenodd" clip-rule="evenodd" d="M71.356,41.197c0.495,0.506,0.99,1.012,1.485,1.518l0.101-0.099
		c-1.093,0.079-1.578-0.437-1.483-1.518L71.356,41.197z"/>
	<path fill-rule="evenodd" clip-rule="evenodd" d="M63.911,18.719c0.375-0.241,0.749-0.483,1.124-0.725
		c0.048,0.174,0.096,0.348,0.144,0.522c-0.455,0.031-0.91,0.063-1.365,0.094L63.911,18.719z"/>
	<path fill-rule="evenodd" clip-rule="evenodd" d="M73.592,43.495c0.252,0.354,0.504,0.709,0.755,1.064
		c-0.176,0.052-0.352,0.104-0.527,0.157c-0.043-0.44-0.086-0.88-0.128-1.321C73.691,43.394,73.592,43.495,73.592,43.495z"/>
	<path fill-rule="evenodd" clip-rule="evenodd" d="M49.685,39.778c0.045-0.109,0.09-0.218,0.136-0.327
		c-0.075,0.078-0.149,0.157-0.224,0.236L49.685,39.778z"/>
	<path fill-rule="evenodd" clip-rule="evenodd" d="M72.841,42.715c0.25,0.26,0.5,0.519,0.751,0.779c0,0,0.099-0.101,0.1-0.101
		c-0.25-0.258-0.5-0.517-0.75-0.777C72.941,42.617,72.841,42.715,72.841,42.715z"/>
	<path fill-rule="evenodd" clip-rule="evenodd" d="M75.535,46.56c0.076,0.086,0.215,0.177,0.21,0.257
		c-0.006,0.082-0.155,0.154-0.241,0.23c-0.076-0.086-0.152-0.172-0.229-0.258C75.362,46.712,75.448,46.636,75.535,46.56z"/>
	<path fill-rule="evenodd" clip-rule="evenodd" d="M66.951,50.836c-0.216-0.079-0.432-0.159-0.648-0.238
		c0.182,0.114,0.364,0.227,0.546,0.34L66.951,50.836z"/>
	<path fill-rule="evenodd" clip-rule="evenodd" d="M67.686,51.643c-0.245-0.27-0.49-0.538-0.735-0.807l-0.103,0.103
		c0.257,0.257,0.514,0.515,0.771,0.772L67.686,51.643z"/>
	<path fill-rule="evenodd" clip-rule="evenodd" d="M66.125,14.188c0.184,0.108,0.367,0.215,0.152,0.089
		c0.069,0.232,0.007,0.025-0.054-0.182L66.125,14.188z"/>
</g>
</svg>
